<svg width="178" height="178" viewBox="0 0 178 178" fill="none" xmlns="http://www.w3.org/2000/svg">
<path d="M0 5C0 2.23858 2.23858 0 5 0H173C175.761 0 178 2.23858 178 5V173C178 175.761 175.761 178 173 178H5C2.23858 178 0 175.761 0 173V5Z" fill="#515681"/>
<path d="M84 88L64 97V103.5H84V97V88Z" fill="#EBA929"/>
<path d="M64 97H84V175H64V97Z" fill="#EBA929"/>
<path d="M175 28L116 51V62H175V51V28Z" fill="#EBA929"/>
<path d="M116 51H175V171.8C175 172.92 175 173.48 174.782 173.908C174.59 174.284 174.284 174.59 173.908 174.782C173.48 175 172.92 175 171.8 175H116V51Z" fill="#EBA929"/>
<path d="M90 76L58 91H38V83.5L90 63H95V76H90Z" fill="#4E6FE2"/>
<path d="M175 17L108 46.5H90V35.5L142 17V8.5H175V17Z" fill="#4E6FE2"/>
<path d="M3 5C3 3.89543 3.89543 3 5 3H17V175H5C3.89543 175 3 174.105 3 173V5Z" fill="#4E6FE2"/>
<path d="M5 175C3.89543 175 3 174.105 3 173L3 161L49 161L49 175L5 175Z" fill="#4E6FE2"/>
<rect x="38" y="85" width="20" height="90" fill="#4E6FE2"/>
<rect x="90" y="45" width="20" height="130" fill="#4E6FE2"/>
<path d="M5 17C3.89543 17 3 16.1046 3 15L3 5C3 3.89543 3.89543 3 5 3L173 2.99999C174.105 2.99999 175 3.89542 175 4.99999L175 17L5 17Z" fill="#4E6FE2"/>
</svg>
